<svg width="41" height="41" viewBox="0 0 41 41" fill="none" xmlns="http://www.w3.org/2000/svg">
<path d="M39.6367 1.29799C39.1511 0.807984 38.5567 0.4395 37.9019 0.222506C37.247 0.00551171 36.5502 -0.0538667 35.8681 0.0491996C25.7218 1.6517 16.3112 6.32753 8.90553 13.4459C7.60858 14.7502 6.59746 16.3102 5.93657 18.0267C5.27568 19.7432 4.97951 21.5785 5.06691 23.4158C5.18819 26.0809 6.12368 28.6447 7.74728 30.7616L0 38.514L2.41558 40.9296L10.1612 33.184C12.406 34.9337 15.1733 35.8788 18.0195 35.8678C19.9093 35.8593 21.7778 35.4686 23.5126 34.7191C25.2474 33.9695 26.8126 32.8767 28.114 31.5065C34.8896 24.1331 39.3326 14.9202 40.8838 5.02728C40.9834 4.35141 40.9224 3.66157 40.7058 3.01366C40.4891 2.36574 40.1229 1.77798 39.6367 1.29799V1.29799ZM8.48016 23.2501C8.41502 21.888 8.63429 20.5273 9.124 19.2546C9.61372 17.9819 10.3631 16.8252 11.3245 15.8581C12.0642 15.1167 12.8244 14.4317 13.5932 13.7739V24.9208L10.1936 28.3204C9.15769 26.8247 8.56387 25.0675 8.48016 23.2501V23.2501ZM25.6438 29.1455C24.0169 30.9187 21.8104 32.0527 19.4217 32.3433C17.0329 32.634 14.6189 32.0622 12.6143 30.7309L21.1338 22.2114H30.9515C29.433 24.7044 27.6538 27.0288 25.6438 29.1455V29.1455ZM37.4979 4.54553C36.6889 9.50457 35.1241 14.3102 32.858 18.7947H24.5504L30.603 12.7421L28.1875 10.3265L17.0099 21.5042V11.1363C22.8267 7.19836 29.4286 4.56914 36.3601 3.42999C36.4099 3.42318 36.4602 3.41976 36.5105 3.41974C36.6428 3.41955 36.7739 3.44556 36.8962 3.49629C37.0185 3.54701 37.1295 3.62144 37.2228 3.71528C37.3307 3.82122 37.4119 3.95127 37.4597 4.09472C37.5076 4.23817 37.5206 4.39092 37.4979 4.54041V4.54553Z" fill="white"/>
</svg>
